<svg xmlns="http://www.w3.org/2000/svg" viewBox="0 0 32 32" width="32" height="32">
  <circle cx="16" cy="16" r="14" fill="#dc2626"/>
  <g fill="white">
    <rect x="10" y="8" width="12" height="8" rx="1"/>
    <rect x="12" y="10" width="2" height="1" rx="0.5"/>
    <rect x="15" y="10" width="2" height="1" rx="0.5"/>
    <rect x="18" y="10" width="2" height="1" rx="0.5"/>
    <rect x="12" y="12" width="2" height="1" rx="0.5"/>
    <rect x="15" y="12" width="2" height="1" rx="0.5"/>
    <rect x="18" y="12" width="2" height="1" rx="0.5"/>
    <rect x="10" y="18" width="12" height="6" rx="1"/>
    <rect x="12" y="20" width="2" height="1" rx="0.5"/>
    <rect x="15" y="20" width="2" height="1" rx="0.5"/>
    <rect x="18" y="20" width="2" height="1" rx="0.5"/>
  </g>
</svg>
