<svg version="1.1" id="Layer_1" xmlns="http://www.w3.org/2000/svg" xmlns:xlink="http://www.w3.org/1999/xlink" x="0px" y="0px"
	 width="100%" viewBox="0 0 640 640" enable-background="new 0 0 640 640" xml:space="preserve">
<path fill="#000000" opacity="1.000000" stroke="none" 
	d="
M144.444168,641.000000 
	C143.792740,625.183533 145.036789,609.418152 145.579483,593.628784 
	C146.150284,577.022095 149.101562,560.744141 151.211960,544.345093 
	C151.317886,543.522034 151.885345,542.559082 151.619232,541.918091 
	C148.825775,535.189209 148.501465,527.832825 146.356781,521.012878 
	C144.178711,514.086853 140.921753,507.617798 143.090118,500.005859 
	C144.262772,495.889435 141.536636,492.267303 140.246323,488.647614 
	C138.300369,483.188782 137.889893,477.956512 139.656433,472.563324 
	C144.723724,457.092804 147.270233,440.839844 153.759247,425.830841 
	C164.034988,402.063232 179.067078,382.636597 203.430557,371.563293 
	C214.820465,366.386505 225.037674,359.062408 235.368927,352.030975 
	C236.973282,350.939056 238.418030,349.424591 240.527939,349.514008 
	C242.213531,351.380646 240.778519,352.812103 240.136444,354.192780 
	C231.068726,373.691376 220.211105,392.211090 209.095398,410.582520 
	C207.499725,413.219727 205.995209,415.640350 207.122406,418.927094 
	C207.672058,420.529846 207.158447,422.145142 206.176086,423.654968 
	C195.072800,440.719849 187.685715,459.816406 177.078186,477.136505 
	C170.195831,488.374084 165.176880,500.147797 163.852203,513.341553 
	C163.636963,515.485474 163.049255,517.731934 163.450348,519.770325 
	C164.464172,524.922607 164.068344,529.963440 163.375305,535.081848 
	C161.876862,546.148621 163.948578,556.905090 167.099655,567.395996 
	C170.265991,577.937622 170.870377,588.615417 170.146927,599.424011 
	C171.750336,599.847595 171.277374,597.759521 173.544159,598.028748 
	C178.686295,611.309753 183.537918,624.966248 180.034988,640.560059 
	C178.933334,641.000000 177.866653,641.000000 176.355148,640.601990 
	C175.698563,636.902771 178.382919,633.598083 176.626450,630.467896 
	C173.977753,625.747559 173.742874,620.774536 173.527100,615.606323 
	C173.406677,612.721436 172.538574,609.789734 171.106155,607.092712 
	C167.277451,610.263184 165.306122,605.508911 165.209167,604.598206 
	C164.585754,598.742004 162.131165,593.219177 162.668030,587.114441 
	C163.538712,577.214111 159.850143,568.111816 156.776016,558.415405 
	C154.089294,570.303955 152.763992,581.730591 153.147171,593.350464 
	C153.294647,597.822510 153.243469,602.284912 152.533340,606.766357 
	C150.732239,618.132751 150.959000,629.569092 152.000000,641.000000 
	C149.629440,641.000000 147.258896,641.000000 144.444168,641.000000 
M179.990921,457.525848 
	C182.915939,450.991760 186.517166,444.775024 189.504211,438.301392 
	C193.242493,430.199554 199.197617,423.057617 200.625626,413.958618 
	C201.129471,410.748291 202.154572,407.908600 203.795990,405.136139 
	C209.476334,395.541626 215.057922,385.888184 220.606461,376.216614 
	C221.530396,374.606110 222.630432,372.900177 221.933929,370.497955 
	C215.306244,373.841858 209.028625,377.118744 202.658035,380.203613 
	C179.725693,391.308289 166.398834,410.641144 157.899246,433.623688 
	C153.352112,445.918884 150.640625,458.880615 146.590744,471.376282 
	C143.889969,479.709381 147.203781,487.083557 148.966980,494.770660 
	C149.202423,495.797089 149.964203,496.536438 151.022659,496.750885 
	C153.503876,497.253632 154.643631,499.421722 156.776077,501.949524 
	C164.309784,492.733063 160.263351,480.329742 166.051758,471.564331 
	C168.881439,471.700531 168.243851,474.879333 171.082001,475.209320 
	C173.877670,469.684509 176.780411,463.948120 179.990921,457.525848 
M149.614059,506.027374 
	C149.600891,506.837433 149.278183,507.829071 149.628357,508.425995 
	C151.117874,510.965210 151.978897,515.556580 155.696808,514.140381 
	C159.163483,512.819824 157.249771,508.680725 156.790176,505.713654 
	C156.492523,503.791992 154.846420,503.164551 153.235779,502.725922 
	C151.031265,502.125641 150.372589,503.695587 149.614059,506.027374 
z"/>
<path fill="#000000" opacity="1.000000" stroke="none" 
	d="
M228.437500,641.000000 
	C230.213867,625.562988 232.651611,610.154114 234.592163,594.682800 
	C237.991730,567.579163 242.710846,540.772644 251.818726,514.930481 
	C255.240219,505.222504 261.166687,496.482056 263.158356,486.194794 
	C265.170837,475.800201 268.661469,465.324127 265.410095,454.776550 
	C262.374359,444.928497 257.747192,435.626709 251.823364,427.102417 
	C249.530289,423.802673 247.480026,420.491943 246.686279,415.397522 
	C253.008469,417.838928 259.240173,418.629639 263.607819,424.267029 
	C266.565033,423.080841 269.899445,423.086517 273.180847,422.691620 
	C276.125000,422.337280 277.107758,420.756958 275.513184,418.265198 
	C265.705109,402.938507 261.883606,385.097443 254.529236,368.751404 
	C252.575562,364.409119 250.046005,360.235748 247.208145,356.409607 
	C244.867889,353.254303 245.607590,349.972198 245.912003,346.834930 
	C246.453796,341.251526 244.720764,337.760010 239.730743,334.654358 
	C222.125534,323.697296 211.197815,307.180450 204.964783,287.931458 
	C198.447250,267.803833 195.616043,246.914642 195.888626,225.630920 
	C196.059570,212.283081 193.539215,199.598434 188.168228,187.000854 
	C182.680557,174.129639 176.172028,161.448730 173.608521,147.413025 
	C172.391861,140.751541 172.560272,134.145157 173.970154,127.583839 
	C175.437759,120.753838 177.364334,114.017967 178.690231,107.163567 
	C179.566605,102.633080 182.675934,99.563980 184.998795,95.987511 
	C185.994019,94.455193 187.896088,93.939514 190.657806,94.609512 
	C183.681778,105.500824 178.566635,116.587196 178.203049,129.742844 
	C177.835449,143.043381 178.201080,155.677185 187.575150,165.911499 
	C190.660263,155.401535 190.660263,155.401535 194.642838,154.374847 
	C196.202545,156.533493 195.399155,158.820053 194.608887,160.908401 
	C190.504761,171.753922 191.844513,182.463379 195.485123,193.027588 
	C196.467438,195.878021 194.988708,199.274902 198.191635,201.714676 
	C201.710464,204.395065 203.978027,200.629791 206.868530,200.803146 
	C213.325943,201.190460 219.815231,201.354614 226.173019,202.705856 
	C228.434952,203.186584 230.551117,204.310974 229.879852,207.049927 
	C229.225891,209.718338 226.748169,208.990021 224.855743,208.813141 
	C218.091156,208.180923 211.348679,207.228683 204.572464,206.843689 
	C201.671661,206.678894 199.776962,209.149399 199.321884,211.758957 
	C198.127090,218.610428 196.917236,225.586792 199.788757,232.329712 
	C200.955612,235.069733 200.444458,237.794632 200.709656,240.525162 
	C201.647614,250.182999 201.518051,260.106018 205.307953,269.262085 
	C206.729004,272.695251 207.826645,275.808807 206.923462,279.605530 
	C206.541931,281.209351 207.168732,283.309204 207.939377,284.890015 
	C213.518829,296.335022 218.303345,308.145294 227.587402,317.530304 
	C233.486145,323.493164 239.648956,328.894806 246.768051,333.203888 
	C249.334290,334.757202 249.999542,336.242767 250.002563,339.501404 
	C250.010132,347.649353 252.389297,355.478119 256.268860,362.724121 
	C261.767426,372.993988 267.002441,383.395508 273.536377,393.104584 
	C278.764984,400.873993 280.365143,401.886200 289.564331,400.135162 
	C292.165131,399.640106 294.779297,399.182037 297.445435,399.761871 
	C296.763397,403.581512 296.763397,403.581512 284.239441,407.237274 
	C283.965881,408.621887 285.187134,409.245300 285.760406,410.195557 
	C287.681946,413.380920 287.176392,415.715729 283.218933,416.226746 
	C280.771667,416.542755 279.797913,417.565277 280.611420,419.806946 
	C282.519470,425.064697 279.411804,427.316071 275.228149,428.515747 
	C271.469971,429.593414 267.535767,430.057098 263.162140,430.890076 
	C265.357239,436.002991 267.330078,440.675018 269.364319,445.320190 
	C273.364441,454.454468 273.657104,463.794708 272.324280,473.640411 
	C269.809784,492.214813 261.736877,508.982635 256.056396,526.505493 
	C249.655563,546.250549 246.054108,566.474670 243.141342,586.921692 
	C240.607132,604.711426 239.104034,622.656372 235.140396,640.628174 
	C232.958328,641.000000 230.916672,641.000000 228.437500,641.000000 
z"/>
<path fill="#000000" opacity="1.000000" stroke="none" 
	d="
M286.449982,641.000000 
	C287.076172,636.102478 287.482361,631.116394 287.180542,626.144836 
	C285.320221,595.502197 286.098083,564.911865 288.463501,534.324707 
	C289.855743,516.321716 288.633362,498.395142 285.825775,480.575745 
	C284.353088,471.228973 285.993073,462.482269 292.120575,455.258270 
	C299.349518,446.735779 304.737915,436.888824 312.066162,428.497589 
	C314.786469,425.382782 309.650421,422.458954 312.787628,419.353790 
	C309.349060,424.569885 304.680695,424.746002 299.628448,424.156830 
	C294.720032,423.584473 289.782410,423.262573 283.695435,422.728760 
	C287.245697,418.226837 289.807739,414.007904 293.290039,410.782562 
	C298.955719,405.534912 303.247955,399.175049 308.398804,393.525421 
	C313.171112,388.291107 315.004913,387.862518 321.672699,392.978882 
	C311.033173,400.800842 303.384308,411.653442 291.296753,419.173553 
	C304.140106,420.726501 316.891571,412.719788 322.272095,400.823395 
	C325.679688,393.289154 326.084045,393.147186 333.160461,397.182251 
	C336.776367,399.244141 340.368561,401.347565 343.978699,403.419586 
	C345.292145,404.173401 346.794830,404.893829 346.567810,406.695770 
	C346.361420,408.334198 344.698303,408.466370 343.496643,408.861847 
	C332.540527,412.467529 324.429382,419.156158 319.442352,429.772308 
	C314.209686,440.911346 307.282196,450.673065 297.417145,458.564117 
	C291.799011,463.058167 291.094818,470.772369 292.563202,477.576294 
	C296.033264,493.655121 296.918976,509.891876 296.220734,526.186279 
	C295.166962,550.776550 292.932312,575.316345 293.329620,599.966125 
	C293.514435,611.432617 295.746399,622.775818 295.330109,634.274048 
	C295.258057,636.265076 295.138306,638.254456 295.020294,640.622314 
	C292.299988,641.000000 289.599976,641.000000 286.449982,641.000000 
z"/>
<path fill="#000000" opacity="1.000000" stroke="none" 
	d="
M455.444153,641.000000 
	C456.545166,633.511597 455.781097,625.978027 454.484009,618.643921 
	C452.937408,609.899414 453.779572,601.108093 452.867493,592.379272 
	C451.674835,580.964905 451.086517,569.553406 453.877228,558.237549 
	C455.395355,552.082092 457.077820,545.942444 458.111237,539.700439 
	C458.857727,535.191772 457.906494,530.436340 460.093597,526.085083 
	C460.416687,525.442261 460.214905,524.427002 460.014679,523.645935 
	C457.245239,512.841553 458.679596,501.726349 457.571503,490.800964 
	C457.511597,490.210510 457.801422,489.584595 457.994385,488.658997 
	C460.263214,489.571838 460.005615,491.328430 460.099701,492.879944 
	C460.492218,499.354156 460.846466,505.830811 461.261932,512.303528 
	C461.352722,513.718079 460.857941,515.627625 462.819397,516.073181 
	C464.823090,516.528320 465.770782,514.792358 466.569733,513.373840 
	C468.146790,510.573792 468.930634,507.523743 468.911224,504.282837 
	C468.833466,491.276917 469.751465,478.300995 471.892090,465.512024 
	C474.889923,447.601715 473.846069,429.275604 477.792603,411.516235 
	C479.404938,404.260681 480.370239,396.823578 483.161591,389.852051 
	C483.958405,387.861908 484.527771,385.088226 487.208832,385.605896 
	C490.283142,386.199493 488.515717,388.857513 488.264191,390.589172 
	C486.117584,405.367157 482.300201,419.906799 481.904663,434.933655 
	C481.492950,450.576233 478.687012,466.012421 477.706116,481.550964 
	C477.181519,489.861481 475.637756,498.181458 476.214752,506.639740 
	C476.683624,513.513000 471.462769,518.471985 468.727112,524.258667 
	C467.582886,526.678955 464.921722,528.789185 467.968811,531.684692 
	C468.318604,532.017029 467.892670,533.251282 467.713531,534.041870 
	C465.085419,545.638489 462.286285,557.199036 459.851318,568.835876 
	C458.345490,576.032227 460.566315,583.406250 458.802307,590.825134 
	C461.827881,590.620605 462.456635,588.420166 463.595154,586.770447 
	C465.954193,590.483948 467.214233,607.185791 465.624268,615.475769 
	C463.228973,610.891785 461.144714,606.903076 458.499756,601.841309 
	C460.085144,615.383972 466.051941,627.256287 463.036316,640.557739 
	C460.629425,641.000000 458.258881,641.000000 455.444153,641.000000 
z"/>
<path fill="#000000" opacity="1.000000" stroke="none" 
	d="
M100.416672,641.000000 
	C101.867447,628.204712 104.852142,615.442505 105.233231,602.603149 
	C105.515694,593.086304 108.289177,584.189087 109.115685,574.881592 
	C109.713745,568.146606 108.911469,561.522156 108.365990,555.015320 
	C107.687920,546.927063 107.549500,538.785950 106.884911,530.699463 
	C105.231918,510.586548 106.913063,490.641266 113.667404,471.313446 
	C116.564995,463.021912 118.462158,454.384796 120.950378,445.944977 
	C123.151787,438.477936 126.134995,431.428131 132.375336,426.255066 
	C133.737808,427.552155 132.937637,428.373779 132.571976,429.260498 
	C122.907394,452.695221 115.442856,476.866974 111.853424,501.919281 
	C109.551331,517.986633 109.423660,534.365417 112.011032,550.634888 
	C114.587143,566.833435 113.942238,583.006714 111.050087,599.201782 
	C108.626282,612.774292 107.093262,626.505920 105.082916,640.583496 
	C103.611107,641.000000 102.222221,641.000000 100.416672,641.000000 
z"/>
<path fill="#000000" opacity="1.000000" stroke="none" 
	d="
M429.953491,523.028748 
	C433.939240,521.688599 435.653748,523.054382 435.147217,527.276794 
	C434.989868,528.588318 435.202148,529.939819 435.140594,531.268127 
	C435.017639,533.921265 435.850128,535.315125 438.884338,535.011169 
	C442.939819,534.604919 447.205597,535.642212 450.870514,532.445007 
	C452.714355,536.248962 450.376678,537.380371 448.103058,537.357605 
	C444.804169,537.324585 441.563354,538.227234 438.187622,537.516052 
	C435.753937,537.003296 432.944977,536.579529 430.555725,538.928162 
	C432.252808,542.729492 437.777008,542.820129 438.444000,547.403687 
	C437.047668,548.927490 434.922302,547.648560 433.230896,548.695374 
	C432.056824,550.335449 432.714539,552.523621 433.436401,553.793274 
	C438.280823,562.314087 435.754211,571.409119 435.509033,580.173767 
	C435.020264,597.644104 435.850403,615.020447 437.327087,632.398743 
	C437.551178,635.036377 437.620422,637.687134 437.880676,640.665894 
	C435.958344,641.000000 433.916656,641.000000 431.437500,641.000000 
	C430.160156,623.732727 429.107910,606.472229 428.561218,589.195679 
	C428.240479,579.059631 428.618958,568.895203 428.892517,558.749207 
	C429.022858,553.916504 427.563354,549.591858 425.438232,545.446228 
	C423.279144,541.234375 422.092987,536.794250 421.565857,532.138794 
	C421.237518,529.238831 422.288605,527.076355 425.243652,525.393127 
	C426.975861,529.698914 427.098358,533.958923 428.260315,538.095764 
	C428.810211,533.350708 429.360138,528.605652 429.945557,523.436523 
	C429.981018,523.012451 429.953491,523.028748 429.953491,523.028748 
z"/>
<path fill="#000000" opacity="1.000000" stroke="none" 
	d="
M137.399994,641.000000 
	C130.746445,618.963318 123.796440,597.080383 120.315826,574.374084 
	C117.114990,553.492981 115.479546,532.455994 115.778206,511.303131 
	C115.793999,510.184723 115.585251,508.962860 116.746346,507.743744 
	C119.270233,510.655914 118.444420,514.350098 119.005714,517.522766 
	C121.842682,533.558472 122.437721,549.869629 124.479935,565.997925 
	C126.688309,583.438477 130.414139,600.616638 135.428940,617.514282 
	C137.640976,624.967896 139.021057,632.668335 140.889404,640.628357 
	C139.933334,641.000000 138.866653,641.000000 137.399994,641.000000 
z"/>
<path fill="#000000" opacity="1.000000" stroke="none" 
	d="
M162.437500,641.000000 
	C162.600372,633.589783 163.162415,626.176147 163.831970,618.772217 
	C163.973801,617.203979 163.874512,615.140259 166.025772,614.818237 
	C168.020462,614.519836 168.184708,616.509338 168.810104,617.765930 
	C171.716003,623.604614 170.031235,629.749146 169.912354,635.780762 
	C169.883392,637.250610 169.477158,638.713013 169.122192,640.589417 
	C166.958328,641.000000 164.916672,641.000000 162.437500,641.000000 
z"/>
<path fill="#000000" opacity="1.000000" stroke="none" 
	d="
M415.428467,641.000000 
	C412.670135,630.017700 413.225800,619.156738 416.691071,608.316223 
	C418.578339,613.837036 421.036713,619.289429 419.640808,625.337708 
	C418.449341,630.500183 418.874908,635.429321 420.836945,640.662231 
	C419.285645,641.000000 417.571289,641.000000 415.428467,641.000000 
z"/>
<path fill="#000000" opacity="1.000000" stroke="none" 
	d="
M368.037811,96.849274 
	C368.659851,100.846046 369.376007,104.458344 372.504700,107.152725 
	C373.052277,105.175644 370.911621,103.760139 371.816254,101.383751 
	C374.057343,102.720779 374.935150,104.813110 375.209198,106.978333 
	C375.837036,111.939018 377.465179,116.775307 377.985748,121.630272 
	C379.625061,136.919647 382.756989,152.108521 381.408447,167.667847 
	C380.715149,175.667068 382.319061,183.081650 386.674438,190.394028 
	C390.753143,197.241837 389.295624,205.519699 388.031067,213.322647 
	C386.456268,223.039841 383.758972,232.412155 380.045807,241.507050 
	C379.673920,242.417892 379.297791,243.599930 378.556549,244.045563 
	C369.402588,249.548782 371.435913,259.115112 370.514099,267.284180 
	C369.663452,274.822449 370.426666,282.542053 370.464447,290.181854 
	C370.476501,292.618347 371.472046,294.699036 372.736786,296.687134 
	C375.102844,300.406372 374.698578,303.947723 373.033417,307.996948 
	C366.979767,322.718048 355.500275,333.303986 345.570740,345.099091 
	C336.997314,355.283264 328.672913,365.676758 320.150238,375.904236 
	C317.626617,378.932678 314.863098,381.770721 312.081421,384.568665 
	C311.276581,385.378235 310.025177,385.712067 308.693756,384.548828 
	C308.316956,382.308228 309.820801,380.347565 311.194031,379.098358 
	C319.511688,371.531830 324.437103,361.387695 331.522583,352.925629 
	C341.379822,341.153320 350.752289,328.968475 361.500824,317.941254 
	C366.319672,312.997437 369.116180,307.346771 366.699097,299.866272 
	C361.443298,283.600372 363.125275,267.123047 365.921783,250.637115 
	C366.687347,246.124008 371.028687,244.392441 372.542053,240.375992 
	C376.803528,229.066544 380.786652,217.703125 382.664856,205.734802 
	C383.696960,199.158203 379.668518,193.172699 379.945557,186.627914 
	C369.941040,177.454132 376.272644,165.682892 375.256348,155.170181 
	C373.976257,141.929245 373.239777,128.681961 369.994385,115.704140 
	C368.573303,110.021545 364.876068,105.695709 361.916290,100.946648 
	C360.955505,99.405067 360.067566,97.878387 359.256805,96.255783 
	C358.057556,93.855690 356.643524,91.581871 353.578033,91.144699 
	C350.074982,90.645134 348.756012,87.925522 347.625305,85.067375 
	C346.951996,83.365402 346.751801,81.584969 348.867584,80.944557 
	C350.593048,80.422295 352.652618,79.310989 353.696808,82.415535 
	C354.869049,85.900948 358.646271,85.574585 361.344910,86.777374 
	C362.867615,87.456047 365.135406,87.865242 364.380554,89.934685 
	C363.006622,93.701431 365.417267,95.034683 368.037811,96.849274 
z"/>
<path fill="#000000" opacity="1.000000" stroke="none" 
	d="
M429.993835,523.005188 
	C426.534393,520.792053 423.062164,518.586243 419.189667,516.126099 
	C418.099365,520.343628 421.149994,523.589783 420.093170,528.009277 
	C416.224213,525.516357 415.213715,521.959167 414.554108,518.359802 
	C412.393005,506.567200 410.376587,494.666565 410.181366,482.720978 
	C409.912079,466.241272 407.008331,449.874664 407.820770,433.428802 
	C408.688721,415.859406 408.669006,398.055328 413.288208,380.951752 
	C416.723572,368.231445 418.987274,355.015167 426.659027,343.662292 
	C432.513672,334.998505 438.777252,332.618256 447.656372,337.922699 
	C463.950226,347.656738 479.977081,357.839386 496.068451,367.909790 
	C502.954193,372.219116 506.228912,380.156342 500.666779,388.101776 
	C496.846832,386.533752 493.990387,384.163818 495.057312,379.585693 
	C495.842987,376.214417 494.526398,374.278961 492.062744,372.424042 
	C481.154205,364.210754 469.316681,357.463043 457.636322,350.467346 
	C453.350037,347.900177 448.911926,345.647675 444.211609,343.886841 
	C440.061310,342.331970 436.811646,343.321503 433.920349,346.557892 
	C429.947632,351.004791 427.357544,356.275696 425.684296,361.818329 
	C418.916626,384.236786 416.119324,407.287781 415.035034,430.630066 
	C414.238831,447.769989 417.262054,464.766296 416.421112,481.893738 
	C416.069336,489.058289 417.411835,496.118561 418.450073,503.188873 
	C419.094452,507.577179 421.831482,509.843933 425.289246,512.317688 
	C430.974304,516.385010 436.749573,517.457336 443.379028,515.961609 
	C445.250122,515.539490 447.297119,515.897156 449.291046,516.426025 
	C445.728210,519.094788 441.638458,518.813904 437.702637,518.599487 
	C434.295288,518.413818 431.859528,519.387024 430.136047,522.735962 
	C429.953491,523.028748 429.981018,523.012451 429.993835,523.005188 
z"/>
<path fill="#000000" opacity="1.000000" stroke="none" 
	d="
M513.537903,471.628113 
	C514.514954,495.610535 509.658997,518.417603 503.966705,541.052979 
	C500.008362,556.793335 495.501587,572.411926 487.664856,586.801758 
	C486.144409,589.593628 486.054596,592.491943 486.661255,595.528137 
	C486.965271,597.049622 488.046417,598.599976 486.824646,600.229248 
	C481.450104,594.759521 480.819397,590.097168 483.355347,583.475830 
	C489.007294,568.718567 493.234833,553.520142 496.832550,538.125549 
	C501.636871,517.567810 505.142700,496.779938 508.357666,475.936737 
	C508.861481,472.670624 508.785828,469.291443 508.732574,465.968445 
	C508.639099,460.130219 508.628326,454.310883 510.395691,448.671631 
	C511.569336,444.926819 509.926117,441.310822 509.529175,436.928986 
	C513.960938,442.591553 515.354980,455.962433 513.537903,471.628113 
z"/>
<path fill="#000000" opacity="1.000000" stroke="none" 
	d="
M397.920532,521.721680 
	C396.055176,526.293091 396.413025,530.904114 395.457123,535.287170 
	C394.913788,537.778748 396.034698,539.163818 398.705170,539.876221 
	C403.835358,541.244812 408.877075,542.975220 413.885681,544.752319 
	C415.541534,545.339844 416.982788,546.532043 418.735840,547.574890 
	C417.198395,550.610229 415.198914,551.398315 412.478210,550.291382 
	C394.197174,542.853882 374.494263,541.203796 355.588104,536.307190 
	C343.686157,533.224548 331.712433,530.419250 319.774567,527.474609 
	C318.508240,527.162292 317.101990,527.062500 316.321899,525.615845 
	C317.213531,523.164429 319.004608,524.348755 320.376984,524.822510 
	C332.238678,528.917358 344.768524,529.784790 356.927246,532.441406 
	C367.054291,534.654114 377.887390,533.960266 387.085480,539.943298 
	C387.437683,540.172363 388.039062,540.018311 388.809052,540.057129 
	C394.543304,509.234772 394.729614,477.616394 402.205933,447.041748 
	C405.276031,453.136200 404.770691,459.620880 403.681488,465.564392 
	C401.028961,480.038177 401.854980,494.685242 400.436646,509.199615 
	C400.026978,513.392090 399.007996,517.358154 397.920532,521.721680 
z"/>
<path fill="#000000" opacity="1.000000" stroke="none" 
	d="
M480.525085,518.499756 
	C484.011658,505.278564 487.676819,492.533966 492.912567,480.301880 
	C493.368469,479.236786 493.738953,477.952606 494.561035,477.257050 
	C499.034027,473.472595 500.182190,468.482697 500.314087,462.962921 
	C500.346985,461.585541 500.193237,459.910187 502.676025,458.103088 
	C503.650238,463.566254 504.090240,468.439728 502.499542,473.215729 
	C498.984619,483.769226 494.822052,494.116943 491.574890,504.747528 
	C485.062836,526.067200 477.759186,547.062866 468.210907,567.234009 
	C467.589752,568.546204 467.509796,570.173645 465.702820,571.242432 
	C463.796051,568.162964 465.121979,565.214233 465.938568,562.385498 
	C470.180328,547.692200 474.987640,533.183411 480.525085,518.499756 
z"/>
<path fill="#000000" opacity="1.000000" stroke="none" 
	d="
M409.056641,577.089966 
	C407.049408,580.319519 405.587585,575.931946 403.196594,577.361511 
	C402.004913,582.939636 406.379578,586.926636 408.672028,591.597534 
	C409.324127,592.926147 410.505707,593.992249 411.177063,595.314514 
	C412.953583,598.813843 412.027008,600.102783 407.623840,600.041199 
	C409.612305,605.096008 408.181885,609.634216 405.672394,614.620300 
	C403.733856,612.005920 404.456390,609.353394 404.315674,607.122620 
	C404.033997,602.657043 403.023865,598.514160 400.612915,594.859741 
	C395.989441,587.851562 394.932465,578.940613 389.553040,572.573242 
	C382.112427,563.766235 388.747192,555.437988 388.040649,546.537048 
	C391.931244,547.160095 393.715820,548.808533 394.517700,551.296997 
	C396.200531,556.519043 399.633423,561.021240 400.598785,566.536865 
	C401.120758,569.519226 404.435120,570.077820 405.936340,572.244141 
	C406.978149,573.747437 407.972076,575.283997 409.056641,577.089966 
M396.489044,570.985718 
	C395.646088,570.163635 395.195557,568.202209 393.524689,569.456970 
	C391.776459,570.769897 392.876190,572.506287 393.530457,573.930969 
	C394.131226,575.239075 395.376526,575.945740 396.791718,575.172668 
	C398.911133,574.014832 397.460297,572.738708 396.489044,570.985718 
z"/>
<path fill="#000000" opacity="1.000000" stroke="none" 
	d="
M327.008118,61.990505 
	C322.003784,61.446819 317.583649,58.885345 312.878265,57.661926 
	C301.335846,54.660851 289.815277,51.503555 277.666290,51.019817 
	C265.474945,50.534393 253.467804,50.142662 241.631332,53.774380 
	C235.974152,55.510139 236.297363,50.778732 235.239777,47.344181 
	C238.209869,49.978065 240.811203,49.010822 244.159164,48.075558 
	C254.096207,45.299599 264.127960,41.610901 274.729279,45.280384 
	C276.177246,45.781574 277.644562,45.460316 279.149780,45.178223 
	C283.764130,44.313454 288.401306,43.721230 292.464386,47.709576 
	C292.575470,46.376362 292.648865,45.495171 292.723816,44.595551 
	C295.312622,44.084454 297.366333,45.585472 298.744293,46.802654 
	C304.012970,51.456558 311.354523,48.486977 316.526764,51.874680 
	C320.351471,54.379810 327.003296,54.299721 327.001587,61.619167 
	C326.992249,62.014004 327.008118,61.990505 327.008118,61.990505 
z"/>
<path fill="#000000" opacity="1.000000" stroke="none" 
	d="
M124.178467,509.484192 
	C123.713135,501.953827 120.888618,495.094666 121.862228,487.848114 
	C121.941444,487.258575 122.269005,486.702393 122.726288,485.470276 
	C125.053238,488.083221 125.420189,490.901917 125.911270,493.483490 
	C129.403885,511.844086 135.529282,529.400818 142.196976,546.771606 
	C144.684708,553.252686 144.345459,559.771545 143.917816,566.393311 
	C143.863159,567.239502 143.387878,567.952393 142.295700,568.311829 
	C139.091904,567.648071 138.949661,564.487183 138.274872,562.183167 
	C135.118912,551.407349 132.234436,540.551086 129.336319,529.701294 
	C127.578789,523.121521 125.973106,516.501160 124.178467,509.484192 
z"/>
<path fill="#000000" opacity="1.000000" stroke="none" 
	d="
M270.672028,217.362198 
	C269.122070,218.996155 269.910431,220.390900 270.474091,221.758926 
	C271.404602,224.017471 270.878418,225.595337 268.394165,226.469574 
	C266.877014,222.466599 264.939941,218.612854 261.131378,216.678726 
	C256.374603,214.263046 254.290298,220.358353 249.591675,220.832947 
	C249.343323,216.422485 251.158203,212.350342 253.736771,209.578537 
	C255.870514,207.284851 259.752197,207.555267 262.580750,210.548355 
	C264.258423,212.323547 266.611328,212.645294 268.038116,210.134415 
	C270.707916,205.436005 274.290649,204.136658 279.860748,203.450653 
	C286.657074,202.613647 293.227448,201.954025 300.000946,202.775879 
	C303.718781,203.226974 307.055603,204.209915 309.314728,207.584152 
	C306.011749,211.386551 302.291504,208.503281 299.929840,207.355072 
	C296.133026,205.509079 295.682281,207.067612 294.865540,209.839432 
	C294.120758,212.367142 291.806641,213.701508 289.651001,214.016388 
	C284.344269,214.791626 285.293793,210.550858 285.219177,207.476349 
	C279.323944,205.970322 276.776764,207.069489 274.851624,212.574844 
	C274.073547,214.799835 273.064850,216.314880 270.672028,217.362198 
z"/>
<path fill="#000000" opacity="1.000000" stroke="none" 
	d="
M379.263245,406.180969 
	C376.130157,412.486328 373.706573,418.647705 372.006378,425.106445 
	C371.610626,426.609924 371.263855,428.542297 369.213806,428.857727 
	C367.756256,429.082001 366.576843,428.273132 365.935394,427.026672 
	C365.040771,425.288330 365.957306,423.825562 367.021301,422.480530 
	C367.430725,421.962921 368.238892,421.519531 368.285278,420.991364 
	C369.336121,409.029419 378.711487,400.743530 381.972748,389.677582 
	C385.253448,378.545807 389.473694,367.684723 393.465088,356.771942 
	C394.848694,352.989044 394.289398,348.642426 396.787842,344.896667 
	C399.495422,351.382782 389.671204,385.283997 379.263245,406.180969 
z"/>
<path fill="#000000" opacity="1.000000" stroke="none" 
	d="
M531.532104,512.245056 
	C530.372437,516.085144 529.798767,519.868103 525.695068,521.123779 
	C523.802979,520.255554 524.397156,518.859314 524.555359,517.582397 
	C525.945618,506.356506 529.364380,495.500031 530.916260,484.339020 
	C532.747681,471.168488 533.678040,457.914398 527.610474,445.254028 
	C526.261230,442.438751 524.748474,439.309387 525.585388,435.603180 
	C528.799622,435.917084 529.377869,438.307190 529.877197,440.451080 
	C533.725525,456.974030 537.057739,473.441681 534.534729,490.699402 
	C533.509338,497.713440 532.489868,504.782471 531.532104,512.245056 
z"/>
<path fill="#000000" opacity="1.000000" stroke="none" 
	d="
M252.659515,144.140427 
	C246.394073,145.610519 240.381226,146.593292 235.254715,150.293488 
	C232.682129,152.150299 229.774063,151.572296 226.730591,151.409012 
	C218.020081,150.941666 209.274155,151.065887 200.542587,151.093399 
	C197.048004,151.104401 195.307220,149.619995 195.230148,145.642731 
	C200.558823,146.885025 205.908707,142.214828 211.144318,146.553009 
	C212.104156,147.348328 213.720169,146.750366 214.949753,146.107712 
	C219.437134,143.762329 223.628418,142.820816 228.460312,146.070724 
	C231.444489,148.077881 234.795410,145.223999 236.903763,143.293488 
	C242.503250,138.166367 248.303482,139.436081 254.289978,141.118500 
	C254.692596,142.780960 253.678299,143.256454 252.659515,144.140427 
z"/>
<path fill="#000000" opacity="1.000000" stroke="none" 
	d="
M245.311066,289.253784 
	C240.523315,288.908600 237.588165,292.031067 234.026367,293.631775 
	C232.437851,294.345642 230.665680,295.673920 228.978775,294.229980 
	C227.838165,293.253662 227.505219,291.632996 227.994415,290.069641 
	C228.623962,288.057831 230.237595,287.438782 232.140640,287.017761 
	C245.819931,283.991425 259.761047,282.724152 273.606110,280.825439 
	C276.428864,280.438324 279.141083,279.925903 281.776886,278.817169 
	C284.475708,277.681946 287.320038,277.675049 288.585052,280.714325 
	C289.877838,283.820190 287.073608,285.322937 284.901581,286.226166 
	C281.517151,287.633667 277.360260,288.279419 274.254211,286.930145 
	C267.786713,284.120728 261.813477,285.847351 255.944244,287.713074 
	C252.513367,288.803680 249.224167,289.237671 245.311066,289.253784 
z"/>
<path fill="#000000" opacity="1.000000" stroke="none" 
	d="
M409.767456,337.149902 
	C412.790161,338.805298 415.820160,339.771362 418.042542,342.187500 
	C416.142883,344.387085 413.216858,340.524200 411.669708,343.925140 
	C412.245789,347.243988 417.268616,348.682129 416.332947,352.996307 
	C410.380432,353.684418 405.169678,348.181549 407.102814,343.075470 
	C408.210175,340.150513 406.624023,340.002319 404.685669,340.146606 
	C400.350922,340.469299 397.074646,338.927155 393.703522,336.045807 
	C388.436279,331.543823 383.249390,327.080231 379.275726,321.361298 
	C376.910706,317.957550 375.059875,314.447540 377.374481,309.223511 
	C381.962646,314.014008 384.768158,318.993591 387.246796,324.094360 
	C388.493225,326.659363 389.947693,328.289368 392.663116,329.376862 
	C398.357117,331.657166 403.861511,334.410919 409.767456,337.149902 
z"/>
<path fill="#000000" opacity="1.000000" stroke="none" 
	d="
M387.338257,479.005493 
	C386.930023,487.810181 387.831390,496.203979 386.632843,505.643463 
	C382.311737,502.034912 382.016083,498.171814 381.979736,494.796814 
	C381.813232,479.332367 380.571381,463.826141 382.905975,448.416748 
	C383.254639,446.115295 383.007019,442.373901 386.216095,442.744873 
	C388.947845,443.060638 388.741058,446.692108 388.592896,449.078613 
	C387.984283,458.881439 387.012512,468.664429 387.338257,479.005493 
z"/>
<path fill="#000000" opacity="1.000000" stroke="none" 
	d="
M241.591522,406.592041 
	C240.113174,408.255188 237.810043,409.170258 237.421173,407.237213 
	C236.483627,402.576599 233.873138,404.535400 231.474747,405.027405 
	C223.141907,406.736786 219.905838,413.855896 215.722610,419.941467 
	C214.620438,421.544891 213.879990,423.433228 211.742020,424.179230 
	C210.027206,410.653442 217.759445,402.234039 231.724243,398.033234 
	C234.399765,397.228394 237.242905,396.969971 240.015961,396.502472 
	C244.682587,395.715820 245.939606,397.102661 244.336670,401.459900 
	C243.714264,403.151733 242.655792,404.683136 241.591522,406.592041 
z"/>
<path fill="#000000" opacity="1.000000" stroke="none" 
	d="
M228.574509,216.126556 
	C228.289734,217.749512 228.002701,219.042496 227.524063,220.260147 
	C226.496719,222.873703 224.843216,224.944992 221.798492,225.026016 
	C218.747665,225.107193 217.101730,222.791550 215.549835,220.646255 
	C214.805771,219.617645 214.509521,218.265091 213.999069,217.031677 
	C211.186203,216.921738 209.673370,218.428253 209.449371,220.776672 
	C209.079422,224.655502 212.755692,225.113541 215.489166,226.473114 
	C210.760849,228.970459 203.548935,226.893753 202.090500,222.776642 
	C201.248520,220.399796 202.017197,217.824188 203.912125,216.406006 
	C207.834198,213.470703 222.996231,211.117401 228.574509,216.126556 
z"/>
<path fill="#000000" opacity="1.000000" stroke="none" 
	d="
M326.984650,62.027382 
	C329.979156,59.945637 328.529816,57.520191 327.228516,54.909470 
	C330.595184,53.704124 332.820679,54.757885 334.192505,57.690414 
	C335.461700,60.403713 336.866028,62.769642 340.761444,61.764290 
	C340.402771,66.129303 338.161438,69.694832 338.546997,73.970428 
	C342.525879,73.637451 344.968994,70.133575 348.732910,70.010071 
	C349.990051,69.968819 351.028961,69.886810 351.808807,70.972931 
	C352.593048,72.065216 352.678009,73.472717 351.609558,74.103500 
	C347.980377,76.246048 345.812531,79.409714 344.660767,83.711075 
	C342.985962,79.953003 340.291290,77.997864 337.180908,76.421539 
	C335.751556,75.697136 334.944305,74.269104 335.007538,72.722664 
	C335.212433,67.711754 333.377014,64.446480 328.053619,63.753071 
	C327.733307,63.711346 327.502686,62.981392 327.119202,62.281094 
	C327.008118,61.990505 326.992249,62.014004 326.984650,62.027382 
z"/>
<path fill="#000000" opacity="1.000000" stroke="none" 
	d="
M424.691803,456.676666 
	C428.911652,458.450195 427.619537,462.569794 427.988098,465.574402 
	C429.300995,476.277618 430.047974,487.066437 429.286835,497.882050 
	C429.148468,499.848511 429.351227,501.913391 427.519958,503.721619 
	C424.278778,502.303101 423.106415,500.006744 423.658905,496.377991 
	C425.189148,486.327423 425.676544,476.281464 423.434753,466.211609 
	C422.749817,463.135132 423.516876,459.929749 424.691803,456.676666 
z"/>
<path fill="#000000" opacity="1.000000" stroke="none" 
	d="
M255.979706,198.585342 
	C263.987610,192.609375 278.879913,190.156418 284.034546,194.128662 
	C279.986237,198.023041 274.571320,198.594788 269.710327,199.984253 
	C265.823303,201.095352 261.535400,200.872528 257.417175,201.066147 
	C256.123627,201.126953 253.796890,201.361023 255.979706,198.585342 
z"/>
<path fill="#000000" opacity="1.000000" stroke="none" 
	d="
M279.858246,250.769867 
	C277.645416,256.836395 274.047211,261.153046 268.021790,263.485565 
	C269.327454,259.235199 272.983063,255.927811 271.684509,250.916733 
	C270.596680,246.718872 267.483215,243.087494 268.239349,236.925659 
	C272.608124,241.898788 278.653931,243.813538 279.858246,250.769867 
z"/>
<path fill="#000000" opacity="1.000000" stroke="none" 
	d="
M399.044617,388.876160 
	C397.370300,391.210785 399.667694,396.119812 395.906067,395.497345 
	C392.033325,394.856476 393.954956,390.442719 394.269501,387.818939 
	C395.177826,380.242462 396.579010,372.724335 397.829559,365.190399 
	C398.040436,363.919891 398.186066,362.510040 400.726379,361.728668 
	C402.931244,370.936371 400.084503,379.681824 399.044617,388.876160 
z"/>
<path fill="#000000" opacity="1.000000" stroke="none" 
	d="
M389.392090,591.133911 
	C390.106781,593.451050 390.339813,595.412842 389.906525,597.414734 
	C388.784851,602.597656 387.904938,607.697388 389.099518,613.106445 
	C389.769043,616.138000 389.834961,619.713867 385.596436,622.901428 
	C383.669952,610.336731 385.736694,598.706604 385.304657,586.584473 
	C388.252869,587.343689 388.673462,589.133057 389.392090,591.133911 
z"/>
<path fill="#000000" opacity="1.000000" stroke="none" 
	d="
M524.097168,495.165588 
	C522.668762,489.927094 524.602234,484.982819 524.889587,479.919952 
	C525.378113,471.312500 525.442810,462.708374 525.678223,454.102142 
	C525.716125,452.716125 525.167542,451.090912 526.694458,450.112305 
	C527.623169,450.050446 528.071899,450.636658 528.072754,451.285950 
	C528.088318,463.353363 529.687195,475.461426 527.293152,487.468140 
	C526.750000,490.192352 526.278381,492.992554 524.097168,495.165588 
z"/>
<path fill="#000000" opacity="1.000000" stroke="none" 
	d="
M252.119827,256.689484 
	C255.963196,258.365692 259.979858,257.123505 263.890198,257.525116 
	C261.930206,263.080109 255.548569,267.232941 249.516205,267.149994 
	C249.512466,263.525787 249.593323,259.960236 252.119827,256.689484 
z"/>
<path fill="#000000" opacity="1.000000" stroke="none" 
	d="
M202.694183,74.653694 
	C204.930908,73.424904 206.714279,71.929626 209.209610,71.883781 
	C208.230453,76.193947 197.028168,87.818665 193.254288,88.109444 
	C193.834808,81.802490 198.571640,78.624466 202.694183,74.653694 
z"/>
<path fill="#000000" opacity="1.000000" stroke="none" 
	d="
M565.732544,593.303345 
	C565.838196,590.612061 565.771301,588.315735 568.294495,585.534851 
	C569.377380,595.570923 571.146362,604.471558 570.632690,614.204346 
	C566.916870,610.985168 565.795959,605.718140 565.732544,593.303345 
z"/>
<path fill="#000000" opacity="1.000000" stroke="none" 
	d="
M259.649170,147.732193 
	C261.956055,146.476318 264.311096,143.241623 266.197449,145.978394 
	C268.028168,148.634415 264.538239,150.597305 262.533691,151.361298 
	C257.233948,153.381180 252.163712,156.989853 244.716446,155.413544 
	C249.401154,150.761612 255.619888,151.684509 259.649170,147.732193 
z"/>
<path fill="#000000" opacity="1.000000" stroke="none" 
	d="
M365.088684,222.206543 
	C366.157806,219.947647 368.746704,219.484955 369.121613,216.960815 
	C369.424866,214.919479 370.483765,212.990387 371.547607,210.081436 
	C373.240326,213.941742 373.762665,216.653320 370.962036,219.156326 
	C368.786194,221.100937 368.766754,223.904037 368.347717,226.451096 
	C367.936279,228.951889 367.177765,230.867462 364.275879,231.413132 
	C361.182739,228.218399 363.469604,225.397125 365.088684,222.206543 
z"/>
<path fill="#000000" opacity="1.000000" stroke="none" 
	d="
M237.013824,179.458969 
	C240.764328,179.169434 239.133987,182.143051 239.626892,183.618439 
	C240.715668,186.877472 240.668228,190.301346 239.348434,193.754745 
	C234.198669,189.940308 233.481277,185.534775 237.013824,179.458969 
z"/>
<path fill="#000000" opacity="1.000000" stroke="none" 
	d="
M257.291473,458.648621 
	C256.942810,461.111145 258.053986,463.288361 256.748047,465.299744 
	C252.818771,461.165375 252.627884,451.185272 257.297699,444.550568 
	C257.297699,450.011139 257.297699,454.113800 257.291473,458.648621 
z"/>
<path fill="#000000" opacity="1.000000" stroke="none" 
	d="
M135.281693,589.636719 
	C138.816254,589.637146 138.509750,592.628113 138.919846,594.585144 
	C139.611465,597.885620 139.929550,601.360413 137.991730,604.770996 
	C136.589890,599.885254 134.042755,595.296936 135.281693,589.636719 
z"/>
<path fill="#000000" opacity="1.000000" stroke="none" 
	d="
M255.606201,275.258820 
	C252.450012,279.005890 247.048660,279.224670 241.424118,276.078278 
	C243.246353,274.202972 243.246353,274.202972 255.606201,275.258820 
z"/>
<path fill="#000000" opacity="1.000000" stroke="none" 
	d="
M252.565277,235.985489 
	C250.188980,238.302689 248.473373,237.512894 248.303009,234.928604 
	C248.118942,232.136398 248.126190,229.094757 250.278107,226.162094 
	C252.384430,229.340546 254.518127,232.003418 252.565277,235.985489 
z"/>
<path fill="#000000" opacity="1.000000" stroke="none" 
	d="
M306.015503,632.242310 
	C305.821808,633.203064 305.648560,633.804016 305.475281,634.404907 
	C303.497955,629.613159 303.796997,624.935181 305.545135,619.597412 
	C308.573700,624.067139 306.011932,628.017822 306.015503,632.242310 
z"/>
<path fill="#000000" opacity="1.000000" stroke="none" 
	d="
M351.691528,224.815674 
	C349.432343,224.767120 348.052704,224.040314 348.239990,221.892944 
	C348.371033,220.389786 349.392426,219.496307 350.899902,219.479736 
	C352.496979,219.462189 353.801056,220.108246 354.321350,221.775635 
	C354.956146,223.809937 353.634735,224.398285 351.691528,224.815674 
z"/>
<path fill="#000000" opacity="1.000000" stroke="none" 
	d="
M301.715820,191.214081 
	C298.049103,191.351990 294.737366,194.603180 290.980103,191.302582 
	C294.992676,188.898010 298.812073,187.848724 302.946594,190.350357 
	C302.996094,190.380310 302.959167,190.719437 302.870972,190.779327 
	C302.610046,190.956451 302.303131,191.065842 301.715820,191.214081 
z"/>
<path fill="#000000" opacity="1.000000" stroke="none" 
	d="
M493.881775,467.139160 
	C494.388489,465.064911 494.025208,463.059662 496.152924,461.614960 
	C498.352264,465.449463 496.863617,468.666931 495.338104,472.143127 
	C493.080170,470.854523 493.977173,469.050568 493.881775,467.139160 
z"/>
<path fill="#000000" opacity="1.000000" stroke="none" 
	d="
M256.338806,294.845215 
	C257.461700,295.111664 258.336884,295.158905 258.800079,296.433807 
	C255.949966,298.152191 253.186722,299.754791 249.706009,297.055420 
	C251.468765,294.731354 253.679367,294.635681 256.338806,294.845215 
z"/>
<path fill="#000000" opacity="1.000000" stroke="none" 
	d="
M439.985657,552.554199 
	C442.362518,554.461975 440.798370,555.332947 439.334137,555.721375 
	C436.576691,556.452820 434.598846,555.542603 433.948120,552.466125 
	C436.029938,550.888184 437.854248,551.812561 439.985657,552.554199 
z"/>
<path fill="#000000" opacity="1.000000" stroke="none" 
	d="
M231.461273,43.096649 
	C229.729675,40.231113 228.215378,37.610279 226.701080,34.989449 
	C227.082825,34.720928 227.464584,34.452408 227.846344,34.183887 
	C230.787872,36.401127 233.120712,39.290604 233.664780,43.169266 
	C233.893082,44.796890 232.437317,43.869705 231.461273,43.096649 
z"/>
<path fill="#000000" opacity="1.000000" stroke="none" 
	d="
M512.230103,431.926392 
	C512.345520,430.271179 512.556396,428.972839 513.878052,427.835938 
	C515.590393,429.223602 516.340881,431.045898 515.212830,432.895264 
	C514.300171,434.391602 512.967834,433.896973 512.230103,431.926392 
z"/>
<path fill="#000000" opacity="1.000000" stroke="none" 
	d="
M232.403061,247.863312 
	C232.724731,246.761307 232.937561,245.995621 233.202820,245.041351 
	C235.699081,248.373901 235.682999,249.257675 233.216583,252.371445 
	C231.001755,251.397919 232.087082,249.694611 232.403061,247.863312 
z"/>
</svg>